<svg xmlns="http://www.w3.org/2000/svg" width="100" height="100" viewBox="0 0 100 100"><path fill="#E2574C" d="M50 0c27.614 0 50 22.386 50 50s-22.386 50-50 50S0 77.614 0 50 22.386 0 50 0z"/><path fill="#CD4F45" d="M73.98 38.29a1.847 1.847 0 0 0-1.673.5L58.084 53.296c-1.434 1.436-6.255.387-9.5-.88-1.268-3.244-2.316-8.066-.886-9.5l14.575-14.153a1.83 1.83 0 0 0 .502-1.668 1.842 1.842 0 0 0-1.12-1.335 24.432 24.432 0 0 0-26.32 5.42 24.33 24.33 0 0 0-6.57 22.6c-.23 3.94-3.81 8.556-5.663 10.44L8.87 78.42a50.24 50.24 0 0 0 13.627 13.33l13.557-13.53c1.9-1.874 7.035-5.405 10.946-5.81.59.038 1.81.12 2.082.18l-.002-.024c7.626 1.108 15.33-1.382 20.808-6.854a24.39 24.39 0 0 0 5.428-26.3 1.84 1.84 0 0 0-1.337-1.123z"/><path fill="#EDEDED" d="M73.98 37.29a1.847 1.847 0 0 0-1.673.5L58.084 52.296c-1.434 1.436-6.255.387-9.5-.88-1.268-3.244-2.316-8.066-.886-9.5l14.575-14.153a1.83 1.83 0 0 0 .502-1.668 1.842 1.842 0 0 0-1.12-1.335 24.432 24.432 0 0 0-26.32 5.42 24.33 24.33 0 0 0-6.57 22.6c-.23 3.94-3.81 8.556-5.663 10.44L8.458 77.83a50.265 50.265 0 0 0 13.435 13.523l14.16-14.135c1.9-1.873 7.035-5.404 10.946-5.81.59.04 1.81.12 2.08.18v-.023c7.625 1.108 15.328-1.382 20.807-6.854a24.39 24.39 0 0 0 5.428-26.298 1.836 1.836 0 0 0-1.336-1.123z"/><path d="M76.862 44.556c.127 1.086.187 2.175.17 3.26a24.38 24.38 0 0 0-1.717-8.403 1.836 1.836 0 0 0-3.01-.62l-14.22 14.502c-1.435 1.436-6.256.387-9.5-.88-.112-.283-.22-.58-.328-.886L14.54 85.245a50.18 50.18 0 0 0 7.354 6.107l14.16-14.135c1.9-1.873 7.035-5.404 10.946-5.81.59.04 1.81.12 2.082.18l-.002-.023c7.626 1.108 15.33-1.382 20.808-6.854a24.373 24.373 0 0 0 6.974-20.154zm-.868-4.18l-.146-.466.146.465zm.813 3.728zm-.32-1.814l-.175-.754.174.754z" fill="#E1E1E1"/><path fill="#F4F4F4" d="M35.334 31.18a24.432 24.432 0 0 1 26.32-5.42c.534.212.93.67 1.083 1.223.085-.285.1-.59.038-.89a1.842 1.842 0 0 0-1.12-1.334 24.432 24.432 0 0 0-26.32 5.42 24.308 24.308 0 0 0-7.152 17.516 24.315 24.315 0 0 1 7.15-16.515zM23.102 63.22L8.458 77.83l.41.59 14.233-14.2c1.852-1.885 5.434-6.5 5.665-10.44l-.07-.362c-.543 3.788-3.84 8.018-5.593 9.8z"/><path fill="#CCD0D2" d="M28.71 67.717L12.906 83.522a50.336 50.336 0 0 0 3.54 3.543L32.25 71.257a2.504 2.504 0 0 0-3.54-3.54z"/><path fill="#B8BCBE" d="M28.71 67.717L12.906 83.522l.484.517 15.32-15.323a2.504 2.504 0 0 1 4.223 1.27 2.504 2.504 0 0 0-4.222-2.27z"/></svg>